<svg xmlns="http://www.w3.org/2000/svg" viewBox="0 0 88.8 88.8"><defs><style>.cls-1{fill:#1a5b8e;}.cls-2{fill:#fff;}</style></defs><g id="레이어_2" data-name="레이어 2"><g id="Layer_1" data-name="Layer 1"><path class="cls-1" d="M44.4,76.09A31.69,31.69,0,1,1,76.09,44.4,31.69,31.69,0,0,1,44.4,76.09Z"/><path class="cls-1" d="M12.29,44.4A32.11,32.11,0,1,0,44.4,12.29,32.15,32.15,0,0,0,12.29,44.4Zm.83,0A31.28,31.28,0,1,1,44.4,75.67,31.31,31.31,0,0,1,13.12,44.4Z"/><path class="cls-1" d="M19,70.82l1.29-1.24s0,0,0,0-.48-.51-.51-.53L16.62,72.1l.53.55s1.41-1.36,1.41-1.36l.54.55s.45-.44.48-.46Z"/><path class="cls-1" d="M17.74,70a1.25,1.25,0,0,0,.37-1l.52.54L19.1,69l-.88-.91.45-.43,0,0-.52-.54s-.44.43-.44.43l-.88-.91-.47.45.51.53a1.28,1.28,0,0,0-1,.34,1.38,1.38,0,0,0,1.92,2Zm-1.39-1.44a.63.63,0,1,1,.87.9.65.65,0,0,1-.91,0A.63.63,0,0,1,16.35,68.51Z"/><path class="cls-1" d="M15.45,70.47l0,0-.53-.55-1.05,1a.54.54,0,0,0,.05.73L16,73.83l.48-.47s-2-2-2-2Z"/><path class="cls-1" d="M37.41,78.27,37,78.21s-.09.51-.09.51l-2,.78.18.59,2.13-.75h0L39,80.78l.38-.49-1.65-1.43s.09-.48.09-.52Z"/><path class="cls-1" d="M39.52,81.88s.1-.61.11-.65h0l-5.3-1s-.11.61-.12.65l2.29.41-.06.37L35,81.45s-.1.56-.1.6l2.81.5-.07.4-2.82-.5s-.11.63-.18,1.08a.52.52,0,0,0,.46.55l3.16.57s.1-.58.11-.61l-2.86-.51.07-.37,2.72.48s.27-1.51.28-1.55l-1.4-.25.06-.37Z"/><path class="cls-1" d="M72.39,69.49l-.53.51,1.39,1.43-.44.43-1.39-1.43-.54.53,1.38,1.43-.84.83.46.48L75.65,70s-.45-.45-.47-.48L73.8,70.9l-1.39-1.43Z"/><path class="cls-1" d="M69,69.81l.46.48,2.3-2.24s2,2.07,2,2.09l.53-.51-2.18-2.24a.52.52,0,0,0-.72.06S69,69.78,69,69.81Z"/><path class="cls-1" d="M45,81.71H44.3v2h-.61v-2h-.76v2H41.74v.66H47v-.66H45.07v-2Z"/><path class="cls-1" d="M42.36,79.55v.67h3.21v2.92h.74V80a.54.54,0,0,0-.55-.47Z"/><path class="cls-1" d="M25.08,73.45l-2.42-1.71-.38.55L24.7,74l-.92,1.3-3-2.13-.38.54L22.2,75l-.48.68-1.22-.87s-.37.52-.39.55l2.42,1.71-.92,1.31.62.44s1-1.35,1-1.44h0l0,0a.55.55,0,0,0-.19-.71l-.73-.52.48-.67,1.84,1.29.38-.54-.65-.47,1.05-1.47a.54.54,0,0,0-.19-.7Z"/><path class="cls-1" d="M58.42,76.32l2.65,5.55.67-.33-1.58-3.31.42-.2,1.58,3.32.69-.33s-2.64-5.51-2.65-5.55l-.69.33.77,1.62-.41.2L59.09,76Z"/><path class="cls-1" d="M58.05,76.79l-1.92.92,1.47,3.07a.55.55,0,0,0,.7.18L60.24,80s-.28-.58-.29-.62l-1.76.85L57.11,78l1.26-.61s-.28-.58-.29-.62Z"/><path class="cls-1" d="M67,72.69s-.83-1.17-.86-1.2h0l-.6.43s2.12,3,2.14,3,.59-.43.62-.44l-.89-1.25.7-.5-.39-.55Z"/><path class="cls-1" d="M66.18,74a1.28,1.28,0,0,0-1-.52l.62-.44s-.36-.49-.38-.53l-1,.74-.36-.51,0,0-.61.43.36.5-1,.74.37.53.6-.42a1.26,1.26,0,0,0,.18,1.06A1.38,1.38,0,0,0,66.18,74ZM64.54,75.2a.63.63,0,0,1,.14-.89.64.64,0,0,1,.89.16.66.66,0,0,1-.14.9A.65.65,0,0,1,64.54,75.2Z"/><path class="cls-1" d="M68.7,75.15a.53.53,0,0,0-.72-.06l-2.36,1.68s.36.51.39.54l2.19-1.56s.83,1.18.86,1.21l.62-.44Z"/><path class="cls-1" d="M54.27,82.23a.53.53,0,0,0-.64-.35l-.2.05-.13-.62,1.47-.3s-.13-.61-.13-.64h0L49.5,81.43s.12.6.13.64l1.45-.3.13.61-.66.14s.12.6.13.64l2.89-.59s.3,1.45.31,1.48l.74-.15Zm-2.32,0-.12-.6.73-.15.12.62-.72.15Z"/><path class="cls-1" d="M50.32,79.65A1.46,1.46,0,1,0,51.47,78,1.41,1.41,0,0,0,50.32,79.65Zm.75-.15a.69.69,0,0,1,.53-.84.72.72,0,0,1,.29,1.4A.7.7,0,0,1,51.07,79.5Z"/><path class="cls-1" d="M32.35,76.81l-.68-.29s-2.42,5.61-2.44,5.65l.72.3,2.43-5.65Z"/><path class="cls-1" d="M30,78.16l.56-1.29a.53.53,0,0,0-.33-.65l-2-.87s-.25.6-.27.63l1.81.78-.47,1.1-2.46,1,.28.66,2.63-1.07h0A.48.48,0,0,0,30,78.16Z"/><path class="cls-1" d="M0,44.4A44.4,44.4,0,1,0,44.4,0,44.45,44.45,0,0,0,0,44.4Zm1.28,0A43.12,43.12,0,1,1,44.4,87.52,43.16,43.16,0,0,1,1.28,44.4Z"/><path class="cls-2" d="M27.46,28.93V32h12.4V45.48l-3.1-3V35.14h-3.1v8.59l5.08,5-4.62,4.55-.46.45V66c.58.46,1.17.9,1.78,1.33.44.3.87.59,1.32.87V55L39.86,52V69.92l1.11.56c.64.31,1.31.6,2,.89V28.93Z"/><path class="cls-2" d="M35,48.72l-4.45-4.35V35.14h-3.1V45.67l3.12,3-3.12,3.05v7.42A24.47,24.47,0,0,0,30,62.5l.59.64V53.07Z"/><path class="cls-2" d="M54.9,53.28l-4.62-4.55,5.08-5V35.14h-3.1v7.29l-3.1,3V32h12.4v-3.1H46.06V71.39c.69-.29,1.37-.6,2-.91l1.09-.54V52c1.27,1.26,2.69,2.65,3.1,3.05V68.17c.45-.29.9-.58,1.35-.89s1.18-.86,1.75-1.3V53.73Z"/><path class="cls-2" d="M58.44,48.72l3.12-3V35.14h-3.1v9.23L54,48.72l4.45,4.35v10.1c.21-.22.41-.44.61-.67a23.48,23.48,0,0,0,2.49-3.26V51.77Z"/><path class="cls-2" d="M45,21.19H43.92a1,1,0,0,0-1,1v4.48h1V24.73h1.17v1.93h1V22.18A1,1,0,0,0,45,21.19Zm0,2.59H43.89V22.23c0-.08.1-.08.11-.08h1s.11,0,.11.08Z"/><path class="cls-2" d="M29.35,21.19v1.1l-1.16,1.17V21.19h-1v5.47h1V24.14l.67.66.49.5v1.36h1V24.91L29.2,23.79l1.11-1.11V21.19h-1Z"/><path class="cls-2" d="M33.29,21.19H32.17a1,1,0,0,0-1,1v3.5a.94.94,0,0,0,1,1h1.12a1,1,0,0,0,1-1v-3.5A1,1,0,0,0,33.29,21.19Zm0,4.44c0,.06-.06.08-.1.08h-1a.13.13,0,0,1-.1-.12V22.25a.1.1,0,0,1,.09-.1h1s.1,0,.1.08Z"/><path class="cls-2" d="M39.17,21.19v5.47h3.07v-.95H40.12V24.27h1.66v-.95H40.12V22.15h2.12v-1H39.17Z"/><path class="cls-2" d="M35.16,21.19v5.47h1V24.27H37a.25.25,0,0,1,.25.24v2.15h1V24.42h0a.73.73,0,0,0-.35-.62.75.75,0,0,0,.35-.63h0v-1a1,1,0,0,0-1-1ZM37.27,23a.27.27,0,0,1-.29.29h-.87V22.15h1.08c.05,0,.08.06.08.1Z"/><path class="cls-2" d="M47.13,21.19v1h1.16v4.52h1V22.15h1.13v-1H47.13Z"/><path class="cls-2" d="M51,21.19v5.48h3.07v-1H51.93V24.27h1.66v-.95H51.93V22.15h2.12v-1H51Z"/><path class="cls-2" d="M56.77,21.19H55.66a1,1,0,0,0-1,1v3.5a1,1,0,0,0,1,1h1.11a1,1,0,0,0,1-1v-.53h-1v.48c0,.06-.06.08-.1.08h-1a.13.13,0,0,1-.1-.12V22.25a.1.1,0,0,1,.09-.1h1s.1,0,.1.08v.48h1v-.53A1,1,0,0,0,56.77,21.19Z"/><path class="cls-2" d="M61.5,21.19h-.9v2.13H59.43V21.19h-1v5.48h1v-2.4H60.6v2.4h1V21.19Z"/><path class="cls-1" d="M11.53,57.18l.25.59-1.48.64-.51,1.28.64.25,1.93-.83.25.58-4.67,2-.26-.58,1.93-.84L7.7,59.54l-.6.26-.25-.58.82-.36,1.54.6.6-1.53Z"/><path class="cls-1" d="M9.63,54.06a.75.75,0,0,1,.62.06.78.78,0,0,1,.41.48l.33,1a.81.81,0,0,1,0,.63.86.86,0,0,1-.49.4l-3.3,1a.82.82,0,0,1-1-.53l-.33-1a.79.79,0,0,1,0-.62.75.75,0,0,1,.48-.41Zm.14.63-3.19,1a.22.22,0,0,0-.15.31l.29.92a.23.23,0,0,0,.32.15l3.14-1a.34.34,0,0,0,.16-.13.28.28,0,0,0,0-.2l-.29-.9C10,54.7,9.92,54.64,9.77,54.69Z"/><path class="cls-1" d="M9.63,50.36l.13.63-2.06.44c-.17,0-.24.13-.2.28l.25,1.2,2.32-.5.13.63-5,1.06-.4-1.87a.79.79,0,0,1,.12-.62.81.81,0,0,1,.52-.36L6.51,51a.83.83,0,0,1,.54,0,.8.8,0,0,1,.44-.26ZM6.56,51.67l-.91.19c-.17,0-.24.13-.2.29l.25,1.19L7.13,53l-.25-1.18a.25.25,0,0,0-.12-.15A.24.24,0,0,0,6.56,51.67Z"/><path class="cls-1" d="M9.21,46.83l.29,2.72-5.07.55-.29-2.72.63-.06L5,49.4l1.45-.16L6.27,47.6l.63-.07.18,1.64L8.8,49,8.57,46.9Z"/><path class="cls-1" d="M9.14,43.3v.64H7.23v1.46l1.91,0V46l-4.28,0a.76.76,0,0,1-.59-.23.87.87,0,0,1-.24-.58V44.16a.74.74,0,0,1,.23-.58.79.79,0,0,1,.58-.25ZM6.59,44H4.92c-.16,0-.24.09-.24.26v.94c0,.17.08.26.24.26l1.68,0Z"/><path class="cls-1" d="M9,37.6a.74.74,0,0,1,.54.33.76.76,0,0,1,.15.6l-.17,1.08a.78.78,0,0,1-.32.54.82.82,0,0,1-.61.15l-4.23-.65.1-.63,4.17.64c.16,0,.25,0,.28-.21L9,38.51c0-.17,0-.26-.2-.29l-4.17-.64.1-.63Z"/><path class="cls-1" d="M10.61,34.3l-.2.78-3.77.36,3.44.89L9.93,37,5,35.67,5.17,35l3.93-.38-3.59-.92L5.67,33Z"/><path class="cls-1" d="M11.15,32.71l-.21.6L6.12,31.67l.2-.6Z"/><path class="cls-1" d="M11,28.56l1.19,1.6-.29.67-2,.24-3.1-1.33L7,29.16l3,1.26,1.44-.17-.89-1.18L7.61,27.82l.25-.59Z"/><path class="cls-1" d="M14.24,26.09l-1.32,2.39L8.46,26l1.32-2.39.56.31-1,1.83,1.28.71L11.4,25l.55.3-.79,1.45,1.51.83,1-1.83Z"/><path class="cls-1" d="M16.23,23.15l-.37.53-1.73-1.21a.23.23,0,0,0-.35.05l-.69,1L15,24.88l-.36.52-4.19-2.91,1.09-1.57a.79.79,0,0,1,.53-.34.82.82,0,0,1,.61.13l.9.63a.77.77,0,0,1,.32.42.84.84,0,0,1,.5.15Zm-3.06-1.34-.76-.53a.22.22,0,0,0-.35,0l-.69,1,1.19.83.69-1a.2.2,0,0,0,0-.19A.25.25,0,0,0,13.17,21.81Z"/><path class="cls-1" d="M17.87,19.91a.81.81,0,0,1,.29.56.8.8,0,0,1-.2.6l-.71.83a.78.78,0,0,1-.55.28.8.8,0,0,1-.61-.19l-.2-.18.41-.48.17.14a.21.21,0,0,0,.34,0l.63-.74a.21.21,0,0,0,0-.34l-.94-.81a.22.22,0,0,0-.35,0l-.66.78a.74.74,0,0,1-.55.28.73.73,0,0,1-.6-.19l-.84-.71a.82.82,0,0,1-.08-1.16l.7-.83a.82.82,0,0,1,.56-.28.77.77,0,0,1,.6.19l.21.18-.42.49-.16-.15a.22.22,0,0,0-.35,0l-.63.74c-.1.12-.08.23,0,.34l.73.63a.21.21,0,0,0,.34,0l.67-.78a.78.78,0,0,1,.55-.28.77.77,0,0,1,.6.19Z"/><path class="cls-1" d="M19.68,19.25l-.45.46-3.6-3.61.45-.45Z"/><path class="cls-1" d="M19.42,13.49l-.79.68,2.93,3.37-.48.42-2.93-3.37-.79.69-.42-.48L19,13Z"/><path class="cls-1" d="M23.22,12.29a.74.74,0,0,1,.14.61.81.81,0,0,1-.33.53l-.18.13,1.37,1.93-.52.36-1.37-1.92-.19.13a.83.83,0,0,1-.61.15.79.79,0,0,1-.53-.34l-1.11-1.56.52-.37,1.07,1.52a.23.23,0,0,0,.35,0L22.6,13a.22.22,0,0,0,.07-.34L21.59,11.1l.52-.37Z"/><path class="cls-1" d="M29.62,11.45a.78.78,0,0,1,.05.63.81.81,0,0,1-.42.47l-1,.49a.82.82,0,0,1-.63.05.78.78,0,0,1-.47-.42l-1.54-3.1A.79.79,0,0,1,25.59,9,.77.77,0,0,1,26,8.47L27,8a.79.79,0,0,1,.62,0,.81.81,0,0,1,.48.41Zm-.59.24-1.49-3a.21.21,0,0,0-.33-.1L26.34,9a.22.22,0,0,0-.1.33l1.47,3a.26.26,0,0,0,.15.14.23.23,0,0,0,.2,0l.85-.42A.21.21,0,0,0,29,11.69Z"/><path class="cls-1" d="M31.72,6.72l-2,.74.51,1.37,1.55-.58.22.59-1.54.58.83,2.22-.59.22-1.8-4.77,2.55-1Z"/><path class="cls-1" d="M37.63,5.22l-1,.21.91,4.37-.62.13L36,5.56l-1,.22-.13-.62,2.67-.57Z"/><path class="cls-1" d="M41.89,9.18l-2.71.3-.57-5.06,2.72-.31.07.64L39.31,5l.17,1.45,1.64-.19.07.64-1.64.18.19,1.72,2.08-.23Z"/><path class="cls-1" d="M45.44,8.28a.8.8,0,0,1-.81.83H43.54A.78.78,0,0,1,43,8.89a.75.75,0,0,1-.24-.58l0-3.46a.79.79,0,0,1,.23-.58A.78.78,0,0,1,43.49,4h1.09a.82.82,0,0,1,.58.23.79.79,0,0,1,.25.58V5.1h-.64V4.88c0-.15-.08-.23-.26-.23h-1c-.16,0-.24.09-.24.26l0,3.29a.22.22,0,0,0,.08.19.22.22,0,0,0,.18.08h.94c.17,0,.26-.08.25-.23V8h.64Z"/><path class="cls-1" d="M49,9.39l-.63-.06L48.57,7l-1.45-.13L46.9,9.2l-.63-.06.46-5.08.64.06-.2,2.08,1.45.14.2-2.09.63.06Z"/><path class="cls-1" d="M52.47,10l-.79-.15-.59-3.74-.68,3.49-.62-.12,1-5,.74.14.61,3.9.71-3.64.62.12Z"/><path class="cls-1" d="M56.12,10.21a.82.82,0,0,1-.4.49.79.79,0,0,1-.62.06l-1.05-.3a.79.79,0,0,1-.5-.39.83.83,0,0,1-.06-.62l1-3.33a.83.83,0,0,1,.39-.49.81.81,0,0,1,.63-.07l1.05.31a.82.82,0,0,1,.56,1Zm-.6-.23.93-3.22a.22.22,0,0,0-.18-.3l-.93-.27a.21.21,0,0,0-.29.18l-.92,3.17a.28.28,0,0,0,0,.2.22.22,0,0,0,.15.13l.91.26A.22.22,0,0,0,55.52,10Z"/><path class="cls-1" d="M58.87,12.19l-2.19-.9L58.6,6.57l.59.24L57.51,11l1.6.65Z"/><path class="cls-1" d="M62.34,13a.82.82,0,0,1-1.11.35l-1-.51a.76.76,0,0,1-.41-.47.78.78,0,0,1,.06-.63l1.6-3.07a.83.83,0,0,1,1.11-.35l1,.5a.84.84,0,0,1,.41.48.77.77,0,0,1-.06.63Zm-.54-.34,1.54-3a.22.22,0,0,0-.11-.33l-.86-.45a.22.22,0,0,0-.33.12L60.52,12a.31.31,0,0,0,0,.21.23.23,0,0,0,.12.15l.84.44A.22.22,0,0,0,61.8,12.68Z"/><path class="cls-1" d="M65.41,15a.78.78,0,0,1-.53.35.74.74,0,0,1-.61-.12l-.91-.6a.78.78,0,0,1-.24-1.13L65,10.59a.81.81,0,0,1,.52-.36.86.86,0,0,1,.62.12l.91.6a.78.78,0,0,1,.35.52.77.77,0,0,1-.12.62l-.15.23L66.62,12l.12-.18c.09-.13.06-.24-.08-.34l-.81-.52c-.13-.09-.24-.06-.34.08L63.7,13.75a.3.3,0,0,0,0,.21.26.26,0,0,0,.11.16l.79.52a.22.22,0,0,0,.34-.06l.57-.86-.38-.25.35-.54.92.6Z"/><path class="cls-1" d="M69.74,15.39a.79.79,0,0,1-.56.3.82.82,0,0,1-.6-.18l-.16-.14-1.5,1.84-.49-.4L67.92,15l-.18-.15a.81.81,0,0,1-.12-1.15l1.2-1.49.5.41L68.15,14a.21.21,0,0,0,0,.34l.73.6a.22.22,0,0,0,.35,0l1.17-1.45.49.41Z"/><path class="cls-1" d="M71.62,21.87l-.43-.47,1.43-1.28-1-1.08-1.43,1.27-.42-.47L73,17a.76.76,0,0,1,.59-.2.75.75,0,0,1,.56.27l.73.81a.81.81,0,0,1,.21.59.77.77,0,0,1-.27.57Zm1.47-2.17,1.25-1.12a.22.22,0,0,0,0-.35l-.63-.7c-.12-.13-.23-.14-.35,0l-1.25,1.11Z"/><path class="cls-1" d="M73.74,24.73l-.47-.65,2.12-3.14L72.51,23l-.37-.51,4.12-3,.44.6-2.21,3.27,3-2.18.38.51Z"/><path class="cls-1" d="M76.28,27.35a.78.78,0,0,1-.63.09.81.81,0,0,1-.49-.38l-1-1.65,4.4-2.57,1,1.65a.83.83,0,0,1,.09.62.86.86,0,0,1-.38.5ZM76,26.78l2.9-1.7a.21.21,0,0,0,.07-.33l-.6-1-3.31,1.93.61,1C75.76,26.82,75.87,26.86,76,26.78Z"/><path class="cls-1" d="M77.81,32.91l-1-2.55,4.75-1.85,1,2.55-.59.23-.76-1.95-1.36.53.6,1.53-.59.23-.6-1.53-1.61.62.76,2Z"/><path class="cls-1" d="M79.59,36.1A.79.79,0,0,1,79,36a.81.81,0,0,1-.39-.5l-.51-1.84L83,32.33l.51,1.84a.79.79,0,0,1-.08.62.77.77,0,0,1-.49.39Zm-.11-.63,3.22-.89a.21.21,0,0,0,.16-.31l-.32-1.16-3.68,1,.32,1.16Q79.24,35.55,79.48,35.47Z"/><path class="cls-1" d="M80.25,39.67a.77.77,0,0,1-.61-.14A.79.79,0,0,1,79.3,39l-.18-1.08a.83.83,0,0,1,.13-.61.81.81,0,0,1,.54-.33L84,36.25l.11.63L80,37.6c-.16,0-.22.12-.19.29l.16.93c0,.17.12.24.28.21l4.16-.71.11.62Z"/><path class="cls-1" d="M80.55,43.31a.82.82,0,0,1-.88-.76l-.07-1.09a.79.79,0,0,1,.76-.88l3.45-.23a.82.82,0,0,1,.88.76l.07,1.09a.76.76,0,0,1-.2.59.75.75,0,0,1-.56.28l-.27,0,0-.64h.22c.16,0,.23-.1.22-.27l-.07-1c0-.16-.1-.23-.27-.22l-3.29.22a.31.31,0,0,0-.18.09.24.24,0,0,0-.07.19l.06.94c0,.17.1.25.26.24l.21,0,0,.64Z"/><path class="cls-1" d="M79.66,46.88v-.63l1.92.06,0-1.46-1.91-.06,0-.64,4.28.14a.82.82,0,0,1,.79.85l0,1.09a.8.8,0,0,1-.26.57.75.75,0,0,1-.59.22Zm2.56-.55,1.68.05c.15,0,.24-.08.24-.25l0-.94c0-.17-.07-.26-.22-.26l-1.68-.06Z"/><path class="cls-1" d="M83.71,50.62l.13-1L79.41,49l.08-.63,4.43.55L84,47.91l.64.08-.34,2.71Z"/><path class="cls-1" d="M79,51.52l.12-.63,5,1-.12.63Z"/><path class="cls-1" d="M78.84,55.4a.82.82,0,0,1-.5-.39.79.79,0,0,1-.07-.62l.29-1.06a.84.84,0,0,1,.38-.5.77.77,0,0,1,.63-.06l3.34.92a.79.79,0,0,1,.49.39.75.75,0,0,1,.07.62l-.29,1.06a.82.82,0,0,1-1,.57Zm.22-.6,3.23.9c.15,0,.25,0,.3-.19l.26-.92a.22.22,0,0,0-.19-.3l-3.17-.89a.26.26,0,0,0-.21,0,.2.2,0,0,0-.12.15l-.26.91A.23.23,0,0,0,79.06,54.8Z"/><path class="cls-1" d="M76.8,58.49l.29-.74,3.79.08-3.32-1.29.23-.59,4.75,1.84-.27.7-3.94-.09,3.45,1.35-.23.59Z"/><path class="cls-2" d="M18.43,41.88v.78h.34v4.25h.77v-5Z"/><path class="cls-2" d="M22.39,41.88h-1a.86.86,0,0,0-.86.87v1a.86.86,0,0,0,.86.86h1.13V46a.15.15,0,0,1-.14.16h-.92a.15.15,0,0,1-.16-.15v-.28h-.77v.34a.85.85,0,0,0,.86.86h1a.86.86,0,0,0,.87-.86v-3.3A.87.87,0,0,0,22.39,41.88Zm-1,2a.15.15,0,0,1-.16-.14v-.93a.15.15,0,0,1,.15-.15h.91a.18.18,0,0,1,.16.18v1Z"/><path class="cls-2" d="M67.62,41.88H66.57a.86.86,0,0,0-.85.87v1a.86.86,0,0,0,.85.86h1.14V46a.15.15,0,0,1-.14.16h-.92a.16.16,0,0,1-.17-.15v-.28h-.76v.34a.85.85,0,0,0,.85.86h1.05a.86.86,0,0,0,.87-.86v-3.3A.87.87,0,0,0,67.62,41.88Zm-1,2a.16.16,0,0,1-.17-.14v-.93a.15.15,0,0,1,.15-.15h.92a.18.18,0,0,1,.16.18v1Z"/><path class="cls-2" d="M69.26,41.88v.78h.34v4.25h.77v-5Z"/><path class="cls-1" d="M13.23,64.43a.87.87,0,1,1-.87-.87A.87.87,0,0,1,13.23,64.43Z"/><path class="cls-1" d="M77.31,64.43a.87.87,0,1,1-.87-.87A.87.87,0,0,1,77.31,64.43Z"/></g></g></svg>