<svg xmlns="http://www.w3.org/2000/svg" xmlns:xlink="http://www.w3.org/1999/xlink" viewBox="0 0 46.61 71.17"><defs><style>.cls-1{fill:url(#New_Gradient_Swatch_1);}.cls-2{fill:url(#New_Gradient_Swatch_1-2);}.cls-3{fill:url(#New_Gradient_Swatch_1-3);}.cls-4{fill:url(#New_Gradient_Swatch_1-4);}.cls-5{fill:#f7941c;}.cls-6{fill:#fff;}</style><linearGradient id="New_Gradient_Swatch_1" x1="-1592.04" y1="-1779.3" x2="-1592.04" y2="-1603.64" gradientTransform="translate(536.28 600.44) scale(0.33)" gradientUnits="userSpaceOnUse"><stop offset="0.17" stop-color="#faa619"/><stop offset="0.5" stop-color="#f7941c"/><stop offset="0.73" stop-color="#f4791f"/><stop offset="1" stop-color="#f26521"/></linearGradient><linearGradient id="New_Gradient_Swatch_1-2" x1="-1608.49" y1="-1779.3" x2="-1608.49" y2="-1603.57" xlink:href="#New_Gradient_Swatch_1"/><linearGradient id="New_Gradient_Swatch_1-3" x1="-1515.04" y1="-1779.3" x2="-1515.04" y2="-1603.56" xlink:href="#New_Gradient_Swatch_1"/><linearGradient id="New_Gradient_Swatch_1-4" x1="-1498.59" y1="-1779.3" x2="-1498.59" y2="-1603.57" xlink:href="#New_Gradient_Swatch_1"/></defs><g id="레이어_2" data-name="레이어 2"><g id="Layer_1" data-name="Layer 1"><path class="cls-1" d="M0,13.14v4.23H17V35.75c-1.75-1.71-3.69-3.62-4.24-4.17v-10H8.47V33.36l7,6.84L9.1,46.41,8.47,47v16.7c.79.62,1.6,1.23,2.44,1.82.59.4,1.19.8,1.8,1.19V48.81L17,44.64V69.16c.5.27,1,.53,1.52.77.87.42,1.78.82,2.71,1.21v-58Z"/><path class="cls-2" d="M10.32,40.18s-5.11-5-6.08-6V21.61H0V36l4.26,4.17L0,44.35V54.5A32.76,32.76,0,0,0,3.42,59l.82.87V46.13C5.21,45.17,10.32,40.18,10.32,40.18Z"/><path class="cls-3" d="M37.5,46.41,31.19,40.2l6.94-6.84V21.61H33.9v10l-4.24,4.17V17.37h17V13.14H25.42v58c.95-.4,1.87-.82,2.75-1.24.51-.24,1-.49,1.49-.74V44.64l4.24,4.17v18c.62-.39,1.23-.8,1.84-1.22.82-.58,1.62-1.17,2.39-1.78V47Z"/><path class="cls-4" d="M42.34,40.18,46.61,36V21.61H42.37V34.23l-6.08,6,6.08,6v13.8q.43-.45.84-.9a34.05,34.05,0,0,0,3.4-4.47V44.35Z"/><path class="cls-5" d="M27,0V1.3h1.57V7.43h1.29V1.3h1.55V0H27Z"/><path class="cls-5" d="M32.24,0V7.43h4.17V6.14H33.53v-2h2.26V2.89H33.53V1.3h2.88V0H32.24Z"/><path class="cls-5" d="M40.1,0H38.59a1.34,1.34,0,0,0-1.33,1.34V6.09a1.29,1.29,0,0,0,1.33,1.34H40.1a1.34,1.34,0,0,0,1.34-1.34V5.37h-1.3V6c0,.09-.09.12-.15.12H38.7A.17.17,0,0,1,38.55,6V1.43a.13.13,0,0,1,.13-.13H40s.15,0,.15.11v.65h1.3V1.34A1.34,1.34,0,0,0,40.1,0Z"/><path class="cls-5" d="M46.53,0H45.3V2.89H43.72V0H42.43V7.43h1.29V4.17H45.3V7.43h1.31V0Z"/><path class="cls-6" d="M24.16,0H22.65a1.33,1.33,0,0,0-1.32,1.34V7.43h1.29V4.8H24.2V7.43h1.3V1.34A1.34,1.34,0,0,0,24.16,0Zm0,3.51H22.62V1.41c0-.11.12-.11.14-.11h1.3s.14,0,.14.11Z"/><path class="cls-6" d="M2.87,0V1.5L1.29,3.08V0H0V7.43H1.29V4l.91.9.67.67V7.43h1.3V5.05L2.65,3.53,4.17,2V0H2.87Z"/><path class="cls-6" d="M8.21,0H6.7A1.33,1.33,0,0,0,5.38,1.34V6.09A1.28,1.28,0,0,0,6.7,7.43H8.21A1.34,1.34,0,0,0,9.55,6.09V1.34A1.34,1.34,0,0,0,8.21,0Zm0,6a.13.13,0,0,1-.14.12H6.81A.17.17,0,0,1,6.67,6V1.43a.12.12,0,0,1,.12-.13H8.11s.14,0,.14.11Z"/><path class="cls-6" d="M16.2,0V7.43h4.17V6.14H17.49v-2h2.26V2.88H17.49V1.3h2.88V0H16.2Z"/><path class="cls-6" d="M10.75,0V7.43H12V4.17h1.25a.33.33,0,0,1,.33.33V7.43h1.3v-3h0a1,1,0,0,0-.46-.85,1,1,0,0,0,.46-.86h0V1.34A1.34,1.34,0,0,0,13.59,0Zm2.87,2.5a.36.36,0,0,1-.39.38H12V1.3h1.47a.12.12,0,0,1,.11.13Z"/></g></g></svg>