<svg xmlns="http://www.w3.org/2000/svg" viewBox="0 0 47.9 76.64"><defs><style>.cls-1{fill:#fff;}</style></defs><g id="레이어_2" data-name="레이어 2"><g id="Layer_1" data-name="Layer 1"><path class="cls-1" d="M0,17v4.35H17.42V40.24L13.06,36V25.71H8.71V37.78l7.14,7L9.36,51.2l-.65.64V69c.81.65,1.65,1.27,2.5,1.87.61.42,1.23.83,1.85,1.23V53.66l4.36-4.28v25.2c.52.27,1,.54,1.56.79.9.43,1.84.84,2.79,1.24V17Z"/><path class="cls-1" d="M10.61,44.79s-5.25-5.12-6.25-6.11v-13H0v14.8l4.38,4.28L0,49.08V59.51a33.19,33.19,0,0,0,3.52,4.64q.4.45.84.9V50.91Z"/><path class="cls-1" d="M38.55,51.2l-6.5-6.39,7.15-7V25.71H34.84V36l-4.36,4.28V21.35H47.9V17H26.13V76.64c1-.41,1.92-.83,2.83-1.27.51-.25,1-.5,1.52-.76V49.38l4.36,4.28V72.12c.64-.41,1.27-.82,1.9-1.25.84-.59,1.66-1.21,2.46-1.84V51.84Z"/><path class="cls-1" d="M43.52,44.79l4.38-4.28V25.71H43.55v13l-6.26,6.11,6.26,6.12V65.09c.29-.31.58-.61.86-.93a33.52,33.52,0,0,0,3.49-4.59V49.08Z"/><path class="cls-1" d="M27.76,0V1.34h1.62v6.3H30.7V1.34h1.59V0H27.76Z"/><path class="cls-1" d="M33.13,0V7.64h4.29V6.31h-3v-2h2.33V3H34.46V1.34h3V0H33.13Z"/><path class="cls-1" d="M41.22,0H39.66A1.37,1.37,0,0,0,38.3,1.37V6.26a1.33,1.33,0,0,0,1.36,1.38h1.56a1.38,1.38,0,0,0,1.37-1.38V5.52H41.25v.67a.13.13,0,0,1-.14.12H39.77c-.06,0-.14-.09-.14-.18V1.47a.13.13,0,0,1,.12-.13h1.36s.14,0,.14.11v.67h1.34V1.37A1.38,1.38,0,0,0,41.22,0Z"/><path class="cls-1" d="M47.83,0H46.57V3H44.94V0H43.61V7.64h1.33V4.29h1.63V7.64H47.9V0Z"/><path class="cls-1" d="M24.84,0H23.28a1.37,1.37,0,0,0-1.36,1.38V7.64h1.33V4.94h1.62v2.7h1.34V1.38A1.38,1.38,0,0,0,24.84,0Zm0,3.61H23.25V1.45c0-.11.13-.11.14-.11h1.34s.14,0,.14.11Z"/><path class="cls-1" d="M3,0V1.54L1.33,3.16V0H0V7.64H1.33V4.11L2.26,5,3,5.73V7.64H4.29V5.19L2.73,3.63,4.29,2.08V0H3Z"/><path class="cls-1" d="M8.44,0H6.89A1.37,1.37,0,0,0,5.53,1.38V6.26A1.32,1.32,0,0,0,6.89,7.64H8.44A1.37,1.37,0,0,0,9.81,6.26V1.38A1.37,1.37,0,0,0,8.44,0Zm0,6.19c0,.09-.09.12-.15.12H7a.18.18,0,0,1-.15-.18V1.47A.13.13,0,0,1,7,1.34H8.33s.15,0,.15.11Z"/><path class="cls-1" d="M16.65,0V7.64h4.29V6.31H18v-2H20.3V3H18V1.34h3V0H16.65Z"/><path class="cls-1" d="M11.05,0V7.64h1.33V4.29h1.28a.34.34,0,0,1,.34.33v3h1.34V4.51h0a1,1,0,0,0-.48-.88,1,1,0,0,0,.48-.87h0V1.38A1.38,1.38,0,0,0,14,0ZM14,2.57a.37.37,0,0,1-.4.39H12.38V1.34h1.51a.12.12,0,0,1,.11.13Z"/></g></g></svg>