<svg id="레이어_1" data-name="레이어 1" xmlns="http://www.w3.org/2000/svg" xmlns:xlink="http://www.w3.org/1999/xlink" viewBox="0 0 238.56 297.02"><defs><style>.cls-1{fill:url(#linear-gradient);}.cls-2{fill:url(#linear-gradient-2);}.cls-3{fill:url(#linear-gradient-3);}.cls-4{fill:url(#linear-gradient-4);}</style><linearGradient id="linear-gradient" x1="-1357.94" y1="-423.97" x2="-1357.94" y2="-248.32" gradientTransform="translate(2629.38 768.69) scale(1.69)" gradientUnits="userSpaceOnUse"><stop offset="0.17" stop-color="#f6ab00"/><stop offset="0.5" stop-color="#f39800"/><stop offset="0.73" stop-color="#ee7800"/><stop offset="1" stop-color="#eb6100"/></linearGradient><linearGradient id="linear-gradient-2" x1="-1374.39" y1="-424.14" x2="-1374.39" y2="-248.41" xlink:href="#linear-gradient"/><linearGradient id="linear-gradient-3" x1="-1280.95" y1="-423.97" x2="-1280.95" y2="-248.24" xlink:href="#linear-gradient"/><linearGradient id="linear-gradient-4" x1="-1264.5" y1="-424.14" x2="-1264.5" y2="-248.41" xlink:href="#linear-gradient"/></defs><path class="cls-1" d="M280,52.09V73.78h86.75v94.08L345,146.5v-51H323.34v60.11l35.56,35-32.32,31.84-3.24,3.18v85.47c4,3.2,8.2,6.32,12.48,9.3,3,2.1,6.1,4.13,9.21,6.09V234.69l21.69-21.35V338.87c2.6,1.33,5.19,2.66,7.79,3.9,4.46,2.15,9.14,4.2,13.9,6.21V52.09Z" transform="translate(-279.97 -52.09)"/><path class="cls-2" d="M332.8,190.52l-31.14-30.46V95.47H280v73.72l21.82,21.33L280,211.85v52a168.51,168.51,0,0,0,17.54,23.14c1.34,1.49,2.73,3,4.15,4.45V221Z" transform="translate(-279.97 -52.09)"/><path class="cls-3" d="M471.92,222.44,439.6,190.6l35.56-35V95.47H453.48v51c-2.85,2.79-12.78,12.57-21.7,21.36V73.78h86.75V52.09H410.09v297c4.86-2.05,9.57-4.16,14.08-6.33,2.6-1.25,5.13-2.52,7.61-3.8V213.34c8.92,8.78,18.85,18.56,21.7,21.35v91.92c3.16-2,6.32-4.08,9.45-6.24,4.21-2.94,8.3-6,12.23-9.13V225.62Z" transform="translate(-279.97 -52.09)"/><path class="cls-4" d="M496.72,190.52l21.81-21.33V95.47H496.85v64.59c-5,4.91-31.14,30.46-31.14,30.46s26.11,25.56,31.14,30.46v70.63q2.2-2.31,4.31-4.63a171.47,171.47,0,0,0,17.37-22.88V211.85Z" transform="translate(-279.97 -52.09)"/></svg>